<svg xmlns="http://www.w3.org/2000/svg" xmlns:xlink="http://www.w3.org/1999/xlink" width="243pt" height="255pt" viewBox="0.00 0.00 182.00 191.00">
<g id="graph0" class="graph" transform="scale(0.75 0.75) rotate(0) translate(4 187)">
<title>G</title>
<polygon fill="white" stroke="transparent" points="-4,4 -4,-187 178,-187 178,4 -4,4"/>
<!-- 140436026217120 -->
<g id="node1" class="node">
<title>140436026217120</title>
<polygon fill="none" stroke="black" points="0,-146.5 0,-182.5 174,-182.5 174,-146.5 0,-146.5"/>
<text text-anchor="middle" x="48.5" y="-160.8" font-family="Times,serif" font-size="14.00">resnet50_input</text>
<polyline fill="none" stroke="black" points="97,-146.5 97,-182.5 "/>
<text text-anchor="middle" x="135.5" y="-160.8" font-family="Times,serif" font-size="14.00">InputLayer</text>
</g>
<!-- 140436026219664 -->
<g id="node2" class="node">
<title>140436026219664</title>
<polygon fill="none" stroke="black" points="19,-73.5 19,-109.5 155,-109.5 155,-73.5 19,-73.5"/>
<text text-anchor="middle" x="50" y="-87.8" font-family="Times,serif" font-size="14.00">resnet50</text>
<polyline fill="none" stroke="black" points="81,-73.5 81,-109.5 "/>
<text text-anchor="middle" x="118" y="-87.8" font-family="Times,serif" font-size="14.00">Functional</text>
</g>
<!-- 140436026217120&#45;&gt;140436026219664 -->
<g id="edge1" class="edge">
<title>140436026217120-&gt;140436026219664</title>
<path fill="none" stroke="black" d="M87,-146.31C87,-138.29 87,-128.55 87,-119.57"/>
<polygon fill="black" stroke="black" points="90.5,-119.53 87,-109.53 83.5,-119.53 90.5,-119.53"/>
</g>
<!-- 140438447184224 -->
<g id="node3" class="node">
<title>140438447184224</title>
<polygon fill="none" stroke="black" points="31.5,-0.5 31.5,-36.5 142.5,-36.5 142.5,-0.5 31.5,-0.5"/>
<text text-anchor="middle" x="62" y="-14.8" font-family="Times,serif" font-size="14.00">dense_5</text>
<polyline fill="none" stroke="black" points="92.5,-0.5 92.5,-36.5 "/>
<text text-anchor="middle" x="117.5" y="-14.8" font-family="Times,serif" font-size="14.00">Dense</text>
</g>
<!-- 140436026219664&#45;&gt;140438447184224 -->
<g id="edge2" class="edge">
<title>140436026219664-&gt;140438447184224</title>
<path fill="none" stroke="black" d="M87,-73.31C87,-65.29 87,-55.55 87,-46.57"/>
<polygon fill="black" stroke="black" points="90.5,-46.53 87,-36.53 83.5,-46.53 90.5,-46.53"/>
</g>
</g>
</svg>